<svg width="16" height="14" viewBox="0 0 16 14" fill="none" xmlns="http://www.w3.org/2000/svg">
<path d="M14.5 0C14.9167 0.0208333 15.2708 0.166667 15.5625 0.4375C15.8333 0.729167 15.9792 1.08333 16 1.5V11.5C15.9792 12.2083 15.7396 12.8021 15.2812 13.2812C14.8021 13.7396 14.2083 13.9792 13.5 14H2C1.4375 13.9792 0.96875 13.7812 0.59375 13.4062C0.21875 13.0312 0.0208333 12.5625 0 12V2.5C0.0208333 2.1875 0.1875 2.02083 0.5 2C0.8125 2.02083 0.979167 2.1875 1 2.5V12C1 12.2917 1.09375 12.5312 1.28125 12.7188C1.46875 12.9062 1.70833 13 2 13C2.29167 13 2.53125 12.9062 2.71875 12.7188C2.90625 12.5312 3 12.2917 3 12V1.5C3.02083 1.08333 3.16667 0.729167 3.4375 0.4375C3.72917 0.166667 4.08333 0.0208333 4.5 0H14.5ZM15 11.5V1.5C14.9792 1.1875 14.8125 1.02083 14.5 1H4.5C4.1875 1.02083 4.02083 1.1875 4 1.5V12C4 12.375 3.90625 12.7083 3.71875 13H13.5C13.9167 12.9792 14.2708 12.8333 14.5625 12.5625C14.8333 12.2708 14.9792 11.9167 15 11.5ZM8.5 8.5C8.8125 8.52083 8.97917 8.6875 9 9C8.97917 9.3125 8.8125 9.47917 8.5 9.5H5.5C5.1875 9.47917 5.02083 9.3125 5 9C5.02083 8.6875 5.1875 8.52083 5.5 8.5H8.5ZM13.5 8.5C13.8125 8.52083 13.9792 8.6875 14 9C13.9792 9.3125 13.8125 9.47917 13.5 9.5H10.5C10.1875 9.47917 10.0208 9.3125 10 9C10.0208 8.6875 10.1875 8.52083 10.5 8.5H13.5ZM8.5 10.5C8.8125 10.5208 8.97917 10.6875 9 11C8.97917 11.3125 8.8125 11.4792 8.5 11.5H5.5C5.1875 11.4792 5.02083 11.3125 5 11C5.02083 10.6875 5.1875 10.5208 5.5 10.5H8.5ZM13.5 10.5C13.8125 10.5208 13.9792 10.6875 14 11C13.9792 11.3125 13.8125 11.4792 13.5 11.5H10.5C10.1875 11.4792 10.0208 11.3125 10 11C10.0208 10.6875 10.1875 10.5208 10.5 10.5H13.5ZM13 2C13.2917 2 13.5312 2.09375 13.7188 2.28125C13.9062 2.46875 14 2.70833 14 3V6C14 6.29167 13.9062 6.53125 13.7188 6.71875C13.5312 6.90625 13.2917 7 13 7H6C5.70833 7 5.46875 6.90625 5.28125 6.71875C5.09375 6.53125 5 6.29167 5 6V3C5 2.70833 5.09375 2.46875 5.28125 2.28125C5.46875 2.09375 5.70833 2 6 2H13ZM13 6V3H6V6H13Z" fill="#8592AA"/>
</svg>
