<svg width="10" height="10" viewBox="0 0 10 10" fill="none" xmlns="http://www.w3.org/2000/svg">
<path d="M8.85742 0.125C9.18555 0.136719 9.45508 0.248047 9.66602 0.458984C9.86523 0.669922 9.9707 0.927734 9.98242 1.23242V6.25977C9.9707 6.57617 9.85938 6.83984 9.64844 7.05078C9.4375 7.26172 9.17383 7.36719 8.85742 7.36719H6.32617L4.12891 9.01953C4.05859 9.06641 3.98828 9.07227 3.91797 9.03711C3.84766 9.00195 3.80664 8.9375 3.79492 8.84375V7.38477H2.10742C1.79102 7.38477 1.52734 7.2793 1.31641 7.06836C1.10547 6.85742 0.994141 6.59375 0.982422 6.27734V1.23242C0.994141 0.927734 1.10547 0.669922 1.31641 0.458984C1.52734 0.248047 1.79102 0.136719 2.10742 0.125H8.85742ZM9.4375 6.3125V1.25C9.4375 1.08594 9.38477 0.951172 9.2793 0.845703C9.17383 0.740234 9.03906 0.6875 8.875 0.6875H2.125C1.96094 0.6875 1.82617 0.740234 1.7207 0.845703C1.61523 0.951172 1.5625 1.08594 1.5625 1.25V6.3125C1.5625 6.47656 1.61523 6.61133 1.7207 6.7168C1.82617 6.82227 1.96094 6.875 2.125 6.875H4.09375C4.26953 6.88672 4.36328 6.98047 4.375 7.15625V8.21094L6.00977 6.98047C6.10352 6.91016 6.21484 6.875 6.34375 6.875H8.875C9.03906 6.875 9.17383 6.82227 9.2793 6.7168C9.38477 6.61133 9.4375 6.47656 9.4375 6.3125ZM5.78125 4.34375C5.94531 4.35547 6.0332 4.44922 6.04492 4.625C6.0332 4.80078 5.94531 4.89453 5.78125 4.90625H3.53125C3.35547 4.89453 3.26172 4.80078 3.25 4.625C3.26172 4.44922 3.35547 4.35547 3.53125 4.34375H5.78125ZM7.46875 2.65625C7.63281 2.66797 7.7207 2.76172 7.73242 2.9375C7.7207 3.11328 7.63281 3.20703 7.46875 3.21875H3.53125C3.35547 3.20703 3.26172 3.11328 3.25 2.9375C3.26172 2.76172 3.35547 2.66797 3.53125 2.65625H7.46875Z" fill="#8592AA"/>
</svg>
