<svg width="18" height="19" viewBox="0 0 18 19" fill="none" xmlns="http://www.w3.org/2000/svg">
<path d="M17.9375 9.75C17.9089 10.1797 17.6797 10.4089 17.25 10.4375H9.6875V18C9.65885 18.4297 9.42969 18.6589 9 18.6875C8.57031 18.6589 8.34115 18.4297 8.3125 18V10.4375H0.75C0.320312 10.4089 0.0911458 10.1797 0.0625 9.75C0.0911458 9.32031 0.320312 9.09115 0.75 9.0625H8.3125V1.5C8.34115 1.07031 8.57031 0.841146 9 0.8125C9.42969 0.841146 9.65885 1.07031 9.6875 1.5V9.0625H17.25C17.6797 9.09115 17.9089 9.32031 17.9375 9.75Z" fill="#8592AA"/>
</svg>
