<svg width="22" height="17" viewBox="0 0 22 17" fill="none" xmlns="http://www.w3.org/2000/svg">
<path d="M2.75 1.875C2.34896 1.875 2.01953 2.00391 1.76172 2.26172C1.50391 2.51953 1.375 2.84896 1.375 3.25V4.96875L9.79688 11.1133C10.599 11.6576 11.401 11.6576 12.2031 11.1133L20.625 4.96875V3.25C20.625 2.84896 20.4961 2.51953 20.2383 2.26172C19.9805 2.00391 19.651 1.875 19.25 1.875H2.75ZM1.375 6.6875V14.25C1.375 14.651 1.50391 14.9805 1.76172 15.2383C2.01953 15.4961 2.34896 15.625 2.75 15.625H19.25C19.651 15.625 19.9805 15.4961 20.2383 15.2383C20.4961 14.9805 20.625 14.651 20.625 14.25V6.6875L13.0195 12.2305C12.418 12.6888 11.7448 12.918 11 12.918C10.2552 12.918 9.58203 12.6888 8.98047 12.2305L1.375 6.6875ZM0 3.25C0.0286458 2.47656 0.300781 1.83203 0.816406 1.31641C1.33203 0.800781 1.97656 0.528646 2.75 0.5H19.25C20.0234 0.528646 20.668 0.800781 21.1836 1.31641C21.6992 1.83203 21.9714 2.47656 22 3.25V14.25C21.9714 15.0234 21.6992 15.668 21.1836 16.1836C20.668 16.6992 20.0234 16.9714 19.25 17H2.75C1.97656 16.9714 1.33203 16.6992 0.816406 16.1836C0.300781 15.668 0.0286458 15.0234 0 14.25V3.25Z" fill="#8592AA"/>
</svg>
