<svg width="4" height="16" viewBox="0 0 4 16" fill="none" xmlns="http://www.w3.org/2000/svg">
<path d="M1.75 12.1875C2.21875 12.2109 2.61719 12.375 2.94531 12.6797C3.25 13.0078 3.41406 13.4062 3.4375 13.875C3.41406 14.3438 3.25 14.7422 2.94531 15.0703C2.61719 15.375 2.21875 15.5391 1.75 15.5625C1.28125 15.5391 0.882812 15.375 0.554688 15.0703C0.25 14.7422 0.0859375 14.3438 0.0625 13.875C0.0859375 13.4062 0.25 13.0078 0.554688 12.6797C0.882812 12.375 1.28125 12.2109 1.75 12.1875ZM1.75 6.5625C2.21875 6.58594 2.61719 6.75 2.94531 7.05469C3.25 7.38281 3.41406 7.78125 3.4375 8.25C3.41406 8.71875 3.25 9.11719 2.94531 9.44531C2.61719 9.75 2.21875 9.91406 1.75 9.9375C1.28125 9.91406 0.882812 9.75 0.554688 9.44531C0.25 9.11719 0.0859375 8.71875 0.0625 8.25C0.0859375 7.78125 0.25 7.38281 0.554688 7.05469C0.882812 6.75 1.28125 6.58594 1.75 6.5625ZM1.75 4.3125C1.28125 4.28906 0.882812 4.125 0.554688 3.82031C0.25 3.49219 0.0859375 3.09375 0.0625 2.625C0.0859375 2.15625 0.25 1.75781 0.554688 1.42969C0.882812 1.125 1.28125 0.960938 1.75 0.9375C2.21875 0.960938 2.61719 1.125 2.94531 1.42969C3.25 1.75781 3.41406 2.15625 3.4375 2.625C3.41406 3.09375 3.25 3.49219 2.94531 3.82031C2.61719 4.125 2.21875 4.28906 1.75 4.3125Z" fill="#8592AA"/>
</svg>
