<svg width="28" height="23" viewBox="0 0 28 23" fill="none" xmlns="http://www.w3.org/2000/svg">
<path d="M11.8164 13.8125C13.9076 13.8698 15.6549 14.6003 17.0586 16.0039C18.4622 17.4076 19.1927 19.1549 19.25 21.2461C19.25 21.6758 19.1068 22.0339 18.8203 22.3203C18.5339 22.6068 18.1758 22.75 17.7461 22.75H1.50391C1.07422 22.75 0.716146 22.6068 0.429688 22.3203C0.143229 22.0339 0 21.6758 0 21.2461C0.0572917 19.1549 0.78776 17.4076 2.19141 16.0039C3.59505 14.6003 5.34245 13.8698 7.43359 13.8125H11.8164ZM17.7461 21.375C17.832 21.375 17.875 21.332 17.875 21.2461C17.8177 19.5273 17.2305 18.0951 16.1133 16.9492C14.9674 15.832 13.5352 15.2448 11.8164 15.1875H7.43359C5.71484 15.2448 4.28255 15.832 3.13672 16.9492C2.01953 18.0951 1.43229 19.5273 1.375 21.2461C1.375 21.332 1.41797 21.375 1.50391 21.375H17.7461ZM9.625 11.75C8.07812 11.7214 6.77474 11.1914 5.71484 10.1602C4.68359 9.10026 4.15365 7.79688 4.125 6.25C4.15365 4.70312 4.68359 3.39974 5.71484 2.33984C6.77474 1.30859 8.07812 0.778646 9.625 0.75C11.1719 0.778646 12.4753 1.30859 13.5352 2.33984C14.5664 3.39974 15.0964 4.70312 15.125 6.25C15.0964 7.79688 14.5664 9.10026 13.5352 10.1602C12.4753 11.1914 11.1719 11.7214 9.625 11.75ZM9.625 2.125C8.45052 2.15365 7.47656 2.55469 6.70312 3.32812C5.92969 4.10156 5.52865 5.07552 5.5 6.25C5.52865 7.42448 5.92969 8.39844 6.70312 9.17188C7.47656 9.94531 8.45052 10.3464 9.625 10.375C10.7995 10.3464 11.7734 9.94531 12.5469 9.17188C13.3203 8.39844 13.7214 7.42448 13.75 6.25C13.7214 5.07552 13.3203 4.10156 12.5469 3.32812C11.7734 2.55469 10.7995 2.15365 9.625 2.125ZM16.1133 11.1055C15.7982 10.8763 15.7266 10.5612 15.8984 10.1602C16.1562 9.81641 16.4714 9.73047 16.8438 9.90234C17.388 10.2174 17.9609 10.375 18.5625 10.375C19.5365 10.3464 20.3529 10.0169 21.0117 9.38672C21.6419 8.72786 21.9714 7.91146 22 6.9375C21.9714 5.96354 21.6419 5.14714 21.0117 4.48828C20.3529 3.85807 19.5365 3.52865 18.5625 3.5C18.1615 3.5 17.7747 3.57161 17.4023 3.71484C17.0013 3.80078 16.7148 3.65755 16.543 3.28516C16.4284 2.88411 16.5716 2.58333 16.9727 2.38281C17.4883 2.21094 18.0182 2.125 18.5625 2.125C19.9375 2.15365 21.069 2.6263 21.957 3.54297C22.8737 4.43099 23.3464 5.5625 23.375 6.9375C23.3464 8.3125 22.8737 9.44401 21.957 10.332C21.069 11.2487 19.9375 11.7214 18.5625 11.75C17.7031 11.75 16.8867 11.5352 16.1133 11.1055ZM21.0977 14.5C22.9023 14.5573 24.4062 15.1732 25.6094 16.3477C26.8125 17.5508 27.4427 19.069 27.5 20.9023C27.5 21.418 27.3281 21.862 26.9844 22.2344C26.612 22.5781 26.168 22.75 25.6523 22.75H21.3125C20.8828 22.7214 20.6536 22.4922 20.625 22.0625C20.6536 21.6328 20.8828 21.4036 21.3125 21.375H25.6523C25.9388 21.3464 26.0964 21.1888 26.125 20.9023C26.0964 19.4987 25.6094 18.3099 24.6641 17.3359C23.6901 16.3906 22.5013 15.9036 21.0977 15.875H19.25C18.8203 15.8464 18.5911 15.6172 18.5625 15.1875C18.5911 14.7578 18.8203 14.5286 19.25 14.5H21.0977Z" fill="#8592AA"/>
</svg>
