<svg width="10" height="10" viewBox="0 0 10 10" fill="none" xmlns="http://www.w3.org/2000/svg">
<path d="M9.20117 1.17969C9.38867 1.37891 9.48242 1.60742 9.48242 1.86523C9.48242 2.13477 9.38867 2.36914 9.20117 2.56836L3.69922 8.07031C3.5 8.26953 3.26562 8.41016 2.99609 8.49219L0.869141 9.10742C0.751953 9.14258 0.658203 9.11914 0.587891 9.03711C0.505859 8.9668 0.482422 8.87891 0.517578 8.77344L1.13281 6.64648C1.21484 6.36523 1.35547 6.125 1.55469 5.92578L7.05664 0.423828C7.25586 0.236328 7.49023 0.142578 7.75977 0.142578C8.01758 0.142578 8.24609 0.236328 8.44531 0.423828L9.20117 1.17969ZM6.49414 1.77734L7.84766 3.11328L8.79688 2.16406C8.96094 1.96484 8.96094 1.76562 8.79688 1.56641L8.05859 0.828125C7.85938 0.664063 7.66016 0.664063 7.46094 0.828125L6.49414 1.77734ZM6.08984 2.18164L1.95898 6.3125C1.83008 6.45312 1.73633 6.61719 1.67773 6.80469L1.20312 8.42188L2.82031 7.94727C3.00781 7.88867 3.17188 7.79492 3.3125 7.66602L7.42578 3.53516L6.08984 2.18164Z" fill="#8592AA"/>
</svg>
