<svg width="18" height="20" viewBox="0 0 18 20" fill="none" xmlns="http://www.w3.org/2000/svg">
<path fill-rule="evenodd" clip-rule="evenodd" d="M13.9842 10.8852C13.9112 12.0336 13.5975 13.0727 13.043 14.0023C12.4232 15.0596 11.5846 15.8982 10.5273 16.5179C9.48828 17.1377 8.3125 17.4567 7 17.475C5.6875 17.4567 4.51172 17.1377 3.47266 16.5179C2.41536 15.8982 1.57682 15.0596 0.957031 14.0023C0.33724 12.9633 0.0182292 11.7875 0 10.475C0.0182292 9.16248 0.33724 7.98669 0.957031 6.94763C1.57682 5.89034 2.41536 5.0518 3.47266 4.43201C4.51172 3.81222 5.6875 3.4932 7 3.47498C8.3125 3.4932 9.48828 3.81222 10.5273 4.43201C10.5374 4.43792 10.5475 4.44385 10.5575 4.44981C10.4198 4.70576 10.3046 4.98084 10.2154 5.27099C10.174 5.24613 10.1321 5.22167 10.0898 5.19763C9.17839 4.65076 8.14844 4.3682 7 4.34998C5.85156 4.3682 4.82161 4.65076 3.91016 5.19763C2.98047 5.72628 2.2513 6.45544 1.72266 7.38513C1.17578 8.29659 0.893229 9.32654 0.875 10.475C0.893229 11.6234 1.17578 12.6534 1.72266 13.5648C2.2513 14.4945 2.98047 15.2237 3.91016 15.7523C4.82161 16.2992 5.85156 16.5817 7 16.6C8.14844 16.5817 9.17839 16.2992 10.0898 15.7523C11.0195 15.2237 11.7487 14.4945 12.2773 13.5648C12.7561 12.7669 13.0323 11.8782 13.1059 10.8987C13.2353 10.9161 13.3668 10.925 13.5 10.925C13.6643 10.925 13.826 10.9114 13.9842 10.8852ZM8.50391 13.182C8.08464 13.4008 7.58333 13.5192 7 13.5375C6.39844 13.5192 5.88802 13.4008 5.46875 13.182C5.06771 12.945 4.73958 12.6807 4.48438 12.389C4.28385 12.1885 4.08333 12.1703 3.88281 12.3344C3.68229 12.5349 3.66406 12.7445 3.82812 12.9633C4.13802 13.3278 4.55729 13.656 5.08594 13.9476C5.61458 14.2393 6.2526 14.3942 7 14.4125C7.7474 14.3942 8.38542 14.2393 8.91406 13.9476C9.44271 13.656 9.86198 13.3278 10.1719 12.9633C10.3359 12.7445 10.3268 12.5349 10.1445 12.3344C9.92578 12.1703 9.71615 12.1885 9.51562 12.389C9.26042 12.6807 8.92318 12.945 8.50391 13.182ZM4.8125 9.81873C5.21354 9.78227 5.43229 9.56352 5.46875 9.16248C5.43229 8.76143 5.21354 8.54268 4.8125 8.50623C4.41146 8.54268 4.19271 8.76143 4.15625 9.16248C4.19271 9.56352 4.41146 9.78227 4.8125 9.81873ZM9.1875 8.50623C8.78646 8.54268 8.56771 8.76143 8.53125 9.16248C8.56771 9.56352 8.78646 9.78227 9.1875 9.81873C9.58854 9.78227 9.80729 9.56352 9.84375 9.16248C9.80729 8.76143 9.58854 8.54268 9.1875 8.50623Z" fill="#8592AA"/>
<path d="M16.9062 5.90002C16.888 6.10055 16.7786 6.20992 16.5781 6.22815H14.3906V8.41565C14.3724 8.61617 14.263 8.72555 14.0625 8.74377C13.862 8.72555 13.7526 8.61617 13.7344 8.41565V6.22815H11.5469C11.3464 6.20992 11.237 6.10055 11.2188 5.90002C11.237 5.6995 11.3464 5.59013 11.5469 5.5719H13.7344V3.3844C13.7526 3.18388 13.862 3.0745 14.0625 3.05627C14.263 3.0745 14.3724 3.18388 14.3906 3.3844V5.5719H16.5781C16.7786 5.59013 16.888 5.6995 16.9062 5.90002Z" fill="#8592AA"/>
</svg>
