<svg width="46" height="16" viewBox="0 0 46 16" fill="none" xmlns="http://www.w3.org/2000/svg">
<path d="M6.375 12.6562C6.5625 12.9062 6.55208 13.1458 6.34375 13.375C6.09375 13.5625 5.85417 13.5521 5.625 13.3438L1.125 8.34375C0.958333 8.11458 0.958333 7.88542 1.125 7.65625L5.625 2.6875C5.85417 2.47917 6.09375 2.46875 6.34375 2.65625C6.55208 2.88542 6.5625 3.125 6.375 3.375L2.1875 8L6.375 12.6562Z" fill="#8592AA"/>
<path d="M44.875 8.34375L40.375 13.3438C40.1458 13.5521 39.9062 13.5625 39.6562 13.375C39.4479 13.1458 39.4375 12.9062 39.625 12.6562L43.8438 8L39.625 3.34375C39.4375 3.09375 39.4479 2.85417 39.6562 2.625C39.9062 2.4375 40.1458 2.44792 40.375 2.65625L44.875 7.625C45.0417 7.875 45.0417 8.11458 44.875 8.34375Z" fill="#8592AA"/>
</svg>
