<svg width="16" height="16" viewBox="0 0 16 16" fill="none" xmlns="http://www.w3.org/2000/svg">
<path d="M4.5 9C4.52083 8 4.86458 7.17708 5.53125 6.53125C6.17708 5.86458 7 5.52083 8 5.5C9 5.52083 9.82292 5.86458 10.4688 6.53125C11.1354 7.17708 11.4792 8 11.5 9C11.4792 10 11.1354 10.8229 10.4688 11.4688C9.82292 12.1354 9 12.4792 8 12.5C7 12.4792 6.17708 12.1354 5.53125 11.4688C4.86458 10.8229 4.52083 10 4.5 9ZM8 6.5C7.29167 6.52083 6.69792 6.76042 6.21875 7.21875C5.76042 7.69792 5.52083 8.29167 5.5 9C5.52083 9.70833 5.76042 10.3021 6.21875 10.7812C6.69792 11.2396 7.29167 11.4792 8 11.5C8.70833 11.4792 9.30208 11.2396 9.78125 10.7812C10.2396 10.3021 10.4792 9.70833 10.5 9C10.4792 8.29167 10.2396 7.69792 9.78125 7.21875C9.30208 6.76042 8.70833 6.52083 8 6.5ZM11.3438 2.03125L11.6562 3H14C14.5625 3.02083 15.0312 3.21875 15.4062 3.59375C15.7812 3.96875 15.9792 4.4375 16 5V13C15.9792 13.5625 15.7812 14.0312 15.4062 14.4062C15.0312 14.7812 14.5625 14.9792 14 15H2C1.4375 14.9792 0.96875 14.7812 0.59375 14.4062C0.21875 14.0312 0.0208333 13.5625 0 13V5C0.0208333 4.4375 0.21875 3.96875 0.59375 3.59375C0.96875 3.21875 1.4375 3.02083 2 3H4.34375L4.65625 2.03125C4.90625 1.38542 5.38542 1.04167 6.09375 1H9.90625C10.6146 1.04167 11.0938 1.38542 11.3438 2.03125ZM2 4C1.70833 4 1.46875 4.09375 1.28125 4.28125C1.09375 4.46875 1 4.70833 1 5V13C1 13.2917 1.09375 13.5312 1.28125 13.7188C1.46875 13.9062 1.70833 14 2 14H14C14.2917 14 14.5312 13.9062 14.7188 13.7188C14.9062 13.5312 15 13.2917 15 13V5C15 4.70833 14.9062 4.46875 14.7188 4.28125C14.5312 4.09375 14.2917 4 14 4H10.9375L10.4062 2.34375C10.3229 2.13542 10.1562 2.02083 9.90625 2H6.09375C5.84375 2.02083 5.67708 2.13542 5.59375 2.34375L5.0625 4H2Z" fill="#8592AA"/>
<ellipse cx="8.00044" cy="9" rx="4.00044" ry="4" fill="#F8FAFC"/>
<path d="M6.29297 6.19531C6.48047 6.09375 6.66797 6.09766 6.85547 6.20703L10.2305 8.26953C10.4023 8.38672 10.4922 8.54688 10.5 8.75C10.4922 8.96094 10.4023 9.11719 10.2305 9.21875L6.85547 11.2812C6.66797 11.3984 6.48047 11.4062 6.29297 11.3047C6.10547 11.1953 6.00781 11.0312 6 10.8125V6.6875C6.00781 6.46875 6.10547 6.30469 6.29297 6.19531ZM6.5625 10.8125L9.9375 8.75L6.5625 6.6875V10.8125Z" fill="#8592AA"/>
</svg>
