<svg width="16" height="17" viewBox="0 0 16 17" fill="none" xmlns="http://www.w3.org/2000/svg">
<path d="M8 0.5C9.5 0.520833 10.8438 0.885417 12.0312 1.59375C13.2396 2.30208 14.1979 3.26042 14.9062 4.46875C15.6146 5.65625 15.9792 7 16 8.5C15.9792 10 15.6146 11.3438 14.9062 12.5312C14.1979 13.7396 13.2396 14.6979 12.0312 15.4062C10.8438 16.1146 9.5 16.4792 8 16.5C6.5 16.4792 5.15625 16.1146 3.96875 15.4062C2.76042 14.6979 1.80208 13.7396 1.09375 12.5312C0.385417 11.3438 0.0208333 10 0 8.5C0.0208333 7 0.385417 5.65625 1.09375 4.46875C1.80208 3.26042 2.76042 2.30208 3.96875 1.59375C5.15625 0.885417 6.5 0.520833 8 0.5ZM8 15.5C9.29167 15.4792 10.4688 15.1562 11.5312 14.5312C12.5729 13.9062 13.4062 13.0729 14.0312 12.0312C14.6562 10.9688 14.9792 9.79167 15 8.5C14.9792 7.20833 14.6562 6.03125 14.0312 4.96875C13.4062 3.92708 12.5729 3.09375 11.5312 2.46875C10.4688 1.84375 9.29167 1.52083 8 1.5C6.70833 1.52083 5.53125 1.84375 4.46875 2.46875C3.42708 3.09375 2.59375 3.92708 1.96875 4.96875C1.34375 6.03125 1.02083 7.20833 1 8.5C1.02083 9.79167 1.34375 10.9688 1.96875 12.0312C2.59375 13.0729 3.42708 13.9062 4.46875 14.5312C5.53125 15.1562 6.70833 15.4792 8 15.5ZM8 6.25C7.54167 6.20833 7.29167 5.95833 7.25 5.5C7.29167 5.04167 7.54167 4.79167 8 4.75C8.45833 4.79167 8.70833 5.04167 8.75 5.5C8.70833 5.95833 8.45833 6.20833 8 6.25ZM9.5 11.5C9.8125 11.5208 9.97917 11.6875 10 12C9.97917 12.3125 9.8125 12.4792 9.5 12.5H6.5C6.1875 12.4792 6.02083 12.3125 6 12C6.02083 11.6875 6.1875 11.5208 6.5 11.5H7.5V8.5H7C6.6875 8.47917 6.52083 8.3125 6.5 8C6.52083 7.6875 6.6875 7.52083 7 7.5H8C8.3125 7.52083 8.47917 7.6875 8.5 8V11.5H9.5Z" fill="#8592AA"/>
</svg>
