<svg width="25" height="25" viewBox="0 0 25 25" fill="none" xmlns="http://www.w3.org/2000/svg">
<rect width="25" height="25" rx="5" fill="#EEF2F6"/>
<path d="M11.8125 7C12.7969 7.01823 13.6263 7.35547 14.3008 8.01172C14.957 8.6862 15.2943 9.51562 15.3125 10.5C15.2943 11.4297 14.9844 12.2227 14.3828 12.8789C13.7812 13.5352 13.0065 13.8997 12.0586 13.9727H11.8398C11.5664 13.9727 11.4115 13.8451 11.375 13.5898C11.375 13.3164 11.5117 13.1615 11.7852 13.125H11.9766C12.6875 13.0521 13.2708 12.7695 13.7266 12.2773C14.1823 11.7852 14.4193 11.1927 14.4375 10.5C14.4193 9.7526 14.1641 9.13281 13.6719 8.64062C13.1797 8.14844 12.5599 7.89323 11.8125 7.875H7C6.2526 7.89323 5.63281 8.14844 5.14062 8.64062C4.64844 9.13281 4.39323 9.7526 4.375 10.5C4.39323 11.2474 4.64844 11.8672 5.14062 12.3594C5.63281 12.8516 6.2526 13.1068 7 13.125H7.875C8.14844 13.1432 8.29427 13.2891 8.3125 13.5625C8.29427 13.8359 8.14844 13.9818 7.875 14H7C6.01562 13.9818 5.1862 13.6445 4.51172 12.9883C3.85547 12.3138 3.51823 11.4844 3.5 10.5C3.51823 9.51562 3.85547 8.6862 4.51172 8.01172C5.1862 7.35547 6.01562 7.01823 7 7H11.8125ZM12.6875 17.5C11.6849 17.4818 10.8555 17.1445 10.1992 16.4883C9.54297 15.8138 9.19661 14.9844 9.16016 14C9.17839 13.0703 9.4974 12.2773 10.1172 11.6211C10.7188 10.9648 11.4935 10.6003 12.4414 10.5273L12.6602 10.5C12.9336 10.5 13.0794 10.6367 13.0977 10.9102C13.0977 11.1836 12.9701 11.3294 12.7148 11.3477L12.4961 11.4023C11.8034 11.457 11.2201 11.7305 10.7461 12.2227C10.2904 12.7148 10.0534 13.3073 10.0352 14C10.0534 14.7474 10.3177 15.3672 10.8281 15.8594C11.3203 16.3516 11.9401 16.6068 12.6875 16.625H17.5C18.2474 16.6068 18.8672 16.3516 19.3594 15.8594C19.8516 15.3672 20.1068 14.7474 20.125 14C20.1068 13.2526 19.8516 12.6328 19.3594 12.1406C18.8672 11.6484 18.2474 11.3932 17.5 11.375H16.625C16.3516 11.3568 16.2057 11.2109 16.1875 10.9375C16.2057 10.6641 16.3516 10.5182 16.625 10.5H17.5C18.4844 10.5182 19.3138 10.8555 19.9883 11.5117C20.6445 12.1862 20.9818 13.0156 21 14C20.9818 14.9844 20.6445 15.8138 19.9883 16.4883C19.3138 17.1445 18.4844 17.4818 17.5 17.5H12.6875Z" fill="#8592AA"/>
</svg>
