<svg width="17" height="17" viewBox="0 0 17 17" fill="none" xmlns="http://www.w3.org/2000/svg">
<path d="M15.8438 15.6562C16.0521 15.8854 16.0521 16.1146 15.8438 16.3438C15.7396 16.4479 15.625 16.5 15.5 16.5C15.375 16.5 15.25 16.4479 15.125 16.3438L10.6875 11.9375C9.52083 12.9375 8.11458 13.4583 6.46875 13.5C4.63542 13.4583 3.11458 12.8229 1.90625 11.5938C0.677083 10.3646 0.0416667 8.83333 0 7C0.0416667 5.16667 0.666667 3.63542 1.875 2.40625C3.10417 1.17708 4.63542 0.541667 6.46875 0.5C8.30208 0.541667 9.83333 1.17708 11.0625 2.40625C12.2917 3.63542 12.9271 5.16667 12.9688 7C12.9479 8.64583 12.4375 10.0521 11.4375 11.2188L15.8438 15.6562ZM6.5 12.5C8.0625 12.4583 9.35417 11.9271 10.375 10.9062C11.4167 9.86458 11.9583 8.5625 12 7C11.9583 5.4375 11.4271 4.13542 10.4062 3.09375C9.36458 2.07292 8.0625 1.54167 6.5 1.5C4.9375 1.54167 3.63542 2.08333 2.59375 3.125C1.57292 4.14583 1.04167 5.4375 1 7C1.04167 8.5625 1.57292 9.85417 2.59375 10.875C3.63542 11.9167 4.9375 12.4583 6.5 12.5Z" fill="#8592AA"/>
</svg>
