<svg width="16" height="16" viewBox="0 0 16 16" fill="none" xmlns="http://www.w3.org/2000/svg">
<path d="M8 11.5C8.66667 11.4792 9.23958 11.3438 9.71875 11.0938C10.1979 10.8229 10.5833 10.5208 10.875 10.1875C11.1042 9.95833 11.3438 9.9375 11.5938 10.125C11.8021 10.3542 11.8125 10.5938 11.625 10.8438C11.2708 11.2604 10.7917 11.6354 10.1875 11.9688C9.58333 12.3021 8.85417 12.4792 8 12.5C7.14583 12.4792 6.41667 12.3021 5.8125 11.9688C5.20833 11.6354 4.72917 11.2604 4.375 10.8438C4.1875 10.5938 4.20833 10.3542 4.4375 10.125C4.66667 9.9375 4.89583 9.95833 5.125 10.1875C5.41667 10.5208 5.79167 10.8229 6.25 11.0938C6.72917 11.3438 7.3125 11.4792 8 11.5ZM6.25 6.5C6.20833 6.95833 5.95833 7.20833 5.5 7.25C5.04167 7.20833 4.79167 6.95833 4.75 6.5C4.79167 6.04167 5.04167 5.79167 5.5 5.75C5.95833 5.79167 6.20833 6.04167 6.25 6.5ZM9.75 6.5C9.79167 6.04167 10.0417 5.79167 10.5 5.75C10.9583 5.79167 11.2083 6.04167 11.25 6.5C11.2083 6.95833 10.9583 7.20833 10.5 7.25C10.0417 7.20833 9.79167 6.95833 9.75 6.5ZM16 8C15.9792 9.5 15.6146 10.8438 14.9062 12.0312C14.1979 13.2396 13.2396 14.1979 12.0312 14.9062C10.8438 15.6146 9.5 15.9792 8 16C6.5 15.9792 5.15625 15.6146 3.96875 14.9062C2.76042 14.1979 1.80208 13.2396 1.09375 12.0312C0.385417 10.8438 0.0208333 9.5 0 8C0.0208333 6.5 0.385417 5.15625 1.09375 3.96875C1.80208 2.76042 2.76042 1.80208 3.96875 1.09375C5.15625 0.385417 6.5 0.0208333 8 0C9.5 0.0208333 10.8438 0.385417 12.0312 1.09375C13.2396 1.80208 14.1979 2.76042 14.9062 3.96875C15.6146 5.15625 15.9792 6.5 16 8ZM8 1C6.6875 1.02083 5.51042 1.34375 4.46875 1.96875C3.40625 2.57292 2.57292 3.40625 1.96875 4.46875C1.34375 5.51042 1.02083 6.6875 1 8C1.02083 9.3125 1.34375 10.4896 1.96875 11.5312C2.57292 12.5938 3.40625 13.4271 4.46875 14.0312C5.51042 14.6562 6.6875 14.9792 8 15C9.3125 14.9792 10.4896 14.6562 11.5312 14.0312C12.5938 13.4271 13.4271 12.5938 14.0312 11.5312C14.6562 10.4896 14.9792 9.3125 15 8C14.9792 6.6875 14.6562 5.51042 14.0312 4.46875C13.4271 3.40625 12.5938 2.57292 11.5312 1.96875C10.4896 1.34375 9.3125 1.02083 8 1Z" fill="#8592AA"/>
</svg>
