<svg width="10" height="16" viewBox="0 0 10 16" fill="none" xmlns="http://www.w3.org/2000/svg">
<path d="M9.5 6C9.8125 6.02083 9.97917 6.1875 10 6.5V8C9.97917 9.33333 9.54167 10.4583 8.6875 11.375C7.85417 12.2917 6.79167 12.8229 5.5 12.9688V15H7.5C7.8125 15.0208 7.97917 15.1875 8 15.5C7.97917 15.8125 7.8125 15.9792 7.5 16H2.5C2.1875 15.9792 2.02083 15.8125 2 15.5C2.02083 15.1875 2.1875 15.0208 2.5 15H4.5V12.9688C3.1875 12.8021 2.11458 12.2396 1.28125 11.2812C0.447917 10.3229 0.0208333 9.16667 0 7.8125V6.5C0.0208333 6.1875 0.1875 6.02083 0.5 6C0.8125 6.02083 0.979167 6.1875 1 6.5V7.875C1.02083 8.95833 1.375 9.88542 2.0625 10.6562C2.75 11.4479 3.63542 11.8958 4.71875 12C5.92708 12.0417 6.9375 11.6771 7.75 10.9062C8.54167 10.1562 8.95833 9.1875 9 8V6.5C9.02083 6.1875 9.1875 6.02083 9.5 6ZM5 11C4.14583 10.9792 3.4375 10.6875 2.875 10.125C2.3125 9.5625 2.02083 8.85417 2 8V3C2.02083 2.14583 2.3125 1.4375 2.875 0.875C3.4375 0.3125 4.14583 0.0208333 5 0C5.85417 0.0208333 6.5625 0.3125 7.125 0.875C7.6875 1.45833 7.97917 2.16667 8 3V8C7.97917 8.85417 7.6875 9.5625 7.125 10.125C6.5625 10.6875 5.85417 10.9792 5 11ZM3 3V8C3.02083 8.5625 3.21875 9.03125 3.59375 9.40625C3.96875 9.78125 4.4375 9.97917 5 10C5.5625 9.97917 6.03125 9.78125 6.40625 9.40625C6.78125 9.03125 6.97917 8.5625 7 8V3C6.97917 2.4375 6.78125 1.96875 6.40625 1.59375C6.03125 1.21875 5.5625 1.02083 5 1C4.4375 1.02083 3.96875 1.21875 3.59375 1.59375C3.21875 1.96875 3.02083 2.4375 3 3Z" fill="#8592AA"/>
</svg>
