<svg width="21" height="17" viewBox="0 0 21 17" fill="none" xmlns="http://www.w3.org/2000/svg">
<path d="M18.5 4.5C19.0625 4.52083 19.5312 4.71875 19.9062 5.09375C20.2812 5.46875 20.4792 5.92708 20.5 6.46875V12.5312C20.4792 13.0729 20.2812 13.5312 19.9062 13.9062C19.5312 14.2812 19.0625 14.4792 18.5 14.5H17.5V16.125C17.4792 16.3542 17.3542 16.4792 17.125 16.5C17.0417 16.5 16.9688 16.4792 16.9062 16.4375L13.5 14.5L10.4688 14.4688C9.92708 14.4479 9.46875 14.2604 9.09375 13.9062C8.71875 13.5312 8.52083 13.0625 8.5 12.5V11.5H9.5V12.5C9.5 12.7917 9.59375 13.0312 9.78125 13.2188C9.96875 13.4062 10.2083 13.5 10.5 13.5H13.75L16.5 15.0625V13.5H18.5C18.7917 13.5 19.0312 13.4062 19.2188 13.2188C19.4062 13.0312 19.5 12.7917 19.5 12.5V6.5C19.5 6.20833 19.4062 5.96875 19.2188 5.78125C19.0312 5.59375 18.7917 5.5 18.5 5.5H14.5V4.5H18.5ZM13.5 8.5C13.4792 9.0625 13.2812 9.53125 12.9062 9.90625C12.5312 10.2812 12.0625 10.4792 11.5 10.5H7.5L4.09375 12.4375C4.03125 12.4792 3.95833 12.5 3.875 12.5C3.64583 12.4792 3.52083 12.3542 3.5 12.125V10.5H2.5C1.9375 10.4792 1.46875 10.2812 1.09375 9.90625C0.71875 9.53125 0.520833 9.05208 0.5 8.46875V2.46875C0.520833 1.92708 0.71875 1.46875 1.09375 1.09375C1.46875 0.71875 1.9375 0.520833 2.5 0.5H11.5C12.0625 0.520833 12.5312 0.71875 12.9062 1.09375C13.2812 1.46875 13.4792 1.92708 13.5 2.46875V8.5ZM7.25 9.5H11.5C11.7917 9.5 12.0312 9.40625 12.2188 9.21875C12.4062 9.03125 12.5 8.79167 12.5 8.5V2.5C12.5 2.20833 12.4062 1.96875 12.2188 1.78125C12.0312 1.59375 11.7917 1.5 11.5 1.5H2.5C2.20833 1.5 1.96875 1.59375 1.78125 1.78125C1.59375 1.96875 1.5 2.20833 1.5 2.5V8.5C1.5 8.79167 1.59375 9.03125 1.78125 9.21875C1.96875 9.40625 2.20833 9.5 2.5 9.5H4.5V11.0625L7.25 9.5Z" fill="#8592AA"/>
</svg>
